PathFileType	4	(X/Y/Z)	RBDS026static.trc
DataRate	CameraRate	NumFrames	NumMarkers	Units	OrigDataRate	OrigDataStartFrame	OrigNumFrames
150.000000	150.000000	4	48	mm	150.000000	75	150
Frame#	Time	L.Ankle			L.Ankle.Medial			L.ASIS			L.GTR			L.Heel.Bottom			L.Heel.Lateral			L.Heel.Top			L.HF			L.Iliac.Crest			L.Knee			L.Knee.Medial			L.MT1			L.MT2			L.MT5			L.PSIS			L.Shank.Bottom.Lateral			L.Shank.Bottom.Medial			L.Shank.Top.Lateral			L.Shank.Top.Medial			L.Thigh.Bottom.Lateral			L.Thigh.Bottom.Medial			L.Thigh.Top.Lateral			L.Thigh.Top.Medial			L.TT			R.Ankle			R.Ankle.Medial			R.ASIS			R.GTR			R.Heel.Bottom			R.Heel.Lateral			R.Heel.Top			R.HF			R.Iliac.Crest			R.Knee			R.Knee.Medial			R.MT1			R.MT2			R.MT5			R.PSIS			R.Shank.Bottom.Lateral			R.Shank.Bottom.Medial			R.Shank.Top.Lateral			R.Shank.Top.Medial			R.Thigh.Bottom.Lateral			R.Thigh.Bottom.Medial			R.Thigh.Top.Lateral			R.Thigh.Top.Medial			R.TT			
		X1	Y1	Z1	X2	Y2	Z2	X3	Y3	Z3	X4	Y4	Z4	X5	Y5	Z5	X6	Y6	Z6	X7	Y7	Z7	X8	Y8	Z8	X9	Y9	Z9	X10	Y10	Z10	X11	Y11	Z11	X12	Y12	Z12	X13	Y13	Z13	X14	Y14	Z14	X15	Y15	Z15	X16	Y16	Z16	X17	Y17	Z17	X18	Y18	Z18	X19	Y19	Z19	X20	Y20	Z20	X21	Y21	Z21	X22	Y22	Z22	X23	Y23	Z23	X24	Y24	Z24	X25	Y25	Z25	X26	Y26	Z26	X27	Y27	Z27	X28	Y28	Z28	X29	Y29	Z29	X30	Y30	Z30	X31	Y31	Z31	X32	Y32	Z32	X33	Y33	Z33	X34	Y34	Z34	X35	Y35	Z35	X36	Y36	Z36	X37	Y37	Z37	X38	Y38	Z38	X39	Y39	Z39	X40	Y40	Z40	X41	Y41	Z41	X42	Y42	Z42	X43	Y43	Z43	X44	Y44	Z44	X45	Y45	Z45	X46	Y46	Z46	X47	Y47	Z47	X48	Y48	Z48	

76	0.5	708.4157104492188	107.0892028808594	1038.160034179688	736.00830078125	119.3851547241211	1122.168212890625	884.7595825195313	1063.05517578125	1114.002319335938	815.3631591796875	965.839599609375	1051.214111328125	640.1243286132813	41.55500411987305	1080.981323242188	675.9380493164063	63.04270553588867	1035.840942382813	649.5921020507813	89.04544067382813	1082.259643554688	788.8143310546875	489.0446472167969	1025.758544921875	802.9395751953125	1138.657592773438	1070.83642578125	806.9891357421875	545.4723510742188	1035.41162109375	793.365966796875	528.6671752929688	1157.283447265625	864.95166015625	57.84790420532227	1122.3525390625	868.9091796875	68.20463562011719	1077.876586914063	828.8147583007813	50.17839050292969	1012.236328125	710.2421264648438	1107.4345703125	1184.33056640625	731.6185302734375	186.7389221191406	1029.133056640625	686.56298828125	195.6037750244141	1051.69287109375	742.5410766601563	264.9070129394531	1011.053405761719	695.3192138671875	277.7985534667969	1033.06103515625	791.6461181640625	666.3820190429688	1028.33154296875	730.0145874023438	665.84130859375	1067.4560546875	785.3403930664063	776.3484497070313	1022.655578613281	729.3980712890625	774.91845703125	1064.658203125	843.8939819335938	457.8622436523438	1071.29248046875	710.2638549804688	104.1693115234375	1418.47119140625	735.5335083007813	122.1193771362305	1332.378540039063	881.4818115234375	1067.779663085938	1353.011596679688	809.1600952148438	961.8201293945313	1414.865844726563	639.41357421875	42.1816291809082	1371.146240234375	671.3775024414063	62.55941390991211	1416.536499023438	648.07470703125	88.16656494140625	1370.658081054688	780.9318237304688	485.3663330078125	1441.622680664063	811.32470703125	1131.045043945313	1394.339721679688	799.0311279296875	538.1450805664063	1432.904418945313	803.2433471679688	525.9783935546875	1311.856079101563	863.8729858398438	60.48060607910156	1332.909912109375	870.644775390625	71.15026092529297	1379.311401367188	834.9659423828125	50.48926162719727	1444.114990234375	711.651611328125	1107.531494140625	1284.929077148438	725.8213500976563	179.1346740722656	1429.123901367188	678.909423828125	186.1720428466797	1400.16552734375	725.45263671875	258.5183410644531	1447.134643554688	679.84375	264.5585327148438	1418.038818359375	803.285400390625	647.3963623046875	1440.686645507813	738.2844848632813	647.8299560546875	1409.12158203125	802.7350463867188	757.9712524414063	1442.114379882813	740.343994140625	757.7818603515625	1412.862548828125	841.8523559570313	458.4659423828125	1392.211669921875	
77	0.5066666666666667	708.4117431640625	107.0879592895508	1038.154663085938	736.00830078125	119.3908996582031	1122.152099609375	884.7136840820313	1063.043579101563	1114.000122070313	815.300537109375	965.831787109375	1051.23095703125	640.1234130859375	41.54527282714844	1080.989013671875	675.9283447265625	63.03970336914063	1035.83984375	649.5858154296875	89.04219055175781	1082.271118164063	788.823486328125	489.0427551269531	1025.762451171875	802.881591796875	1138.658935546875	1070.833374023438	807.006591796875	545.4595336914063	1035.416015625	793.38818359375	528.654052734375	1157.287719726563	864.9528198242188	57.84207916259766	1122.346923828125	868.9115600585938	68.21391296386719	1077.878295898438	828.8173217773438	50.18391418457031	1012.223571777344	710.1996459960938	1107.434326171875	1184.335083007813	731.6234741210938	186.7372283935547	1029.128173828125	686.565185546875	195.6048126220703	1051.697143554688	742.5457153320313	264.8960266113281	1011.054138183594	695.3211059570313	277.7992858886719	1033.068603515625	791.6309204101563	666.366943359375	1028.327392578125	730.0136108398438	665.82080078125	1067.447631835938	785.3202514648438	776.3377075195313	1022.656372070313	729.3831787109375	774.904052734375	1064.64892578125	843.906982421875	457.8701477050781	1071.300537109375	710.2615356445313	104.1663284301758	1418.485595703125	735.5474243164063	122.1258392333984	1332.3759765625	881.4446411132813	1067.778442382813	1353.01123046875	809.1165161132813	961.8110961914063	1414.871215820313	639.41748046875	42.19136428833008	1371.153686523438	671.376220703125	62.56140518188477	1416.537963867188	648.0731811523438	88.16361999511719	1370.656860351563	780.9284057617188	485.3562316894531	1441.628662109375	811.2898559570313	1131.027587890625	1394.350463867188	799.05029296875	538.1396484375	1432.89892578125	803.2549438476563	525.9822998046875	1311.86669921875	863.8619384765625	60.481689453125	1332.908935546875	870.6419067382813	71.15085601806641	1379.319213867188	834.9649047851563	50.48575592041016	1444.123657226563	711.603271484375	1107.52099609375	1284.93701171875	725.8125610351563	179.1351928710938	1429.135375976563	678.9119873046875	186.1751403808594	1400.163330078125	725.4443359375	258.5189514160156	1447.134887695313	679.8396606445313	264.5564880371094	1418.02294921875	803.2848510742188	647.3987426757813	1440.69189453125	738.279296875	647.81396484375	1409.131469726563	802.7059936523438	757.97705078125	1442.126953125	740.316650390625	757.7804565429688	1412.87158203125	841.8490600585938	458.4593200683594	1392.206176757813	
78	0.5133333333333334	708.4193115234375	107.0836868286133	1038.166137695313	736.014404296875	119.389892578125	1122.153076171875	884.7233276367188	1063.074829101563	1114.132568359375	815.2494506835938	965.820068359375	1051.246704101563	640.1187744140625	41.54598236083984	1080.987915039063	675.9387817382813	63.0411491394043	1035.842529296875	649.596435546875	89.04005432128906	1082.263427734375	788.8485107421875	489.0282897949219	1025.758422851563	802.8272094726563	1138.659057617188	1070.839599609375	807.0150146484375	545.448974609375	1035.421997070313	793.433349609375	528.6290893554688	1157.27880859375	864.94873046875	57.85028076171875	1122.341430664063	868.8971557617188	68.21739196777344	1077.876586914063	828.8093872070313	50.19224548339844	1012.223327636719	710.1546020507813	1107.407592773438	1184.33349609375	731.624755859375	186.7303314208984	1029.133911132813	686.57080078125	195.5975646972656	1051.6923828125	742.5606079101563	264.8888244628906	1011.057067871094	695.3333740234375	277.7967224121094	1033.058349609375	791.640380859375	666.358154296875	1028.329345703125	730.0162963867188	665.79736328125	1067.448364257813	785.3001098632813	776.3321533203125	1022.664611816406	729.3673095703125	774.8839721679688	1064.65966796875	843.919677734375	457.8466491699219	1071.302124023438	710.248779296875	104.1599197387695	1418.485961914063	735.5385131835938	122.1298599243164	1332.38427734375	881.3997802734375	1067.766723632813	1353.0205078125	809.0873413085938	961.8080444335938	1414.876098632813	639.4156494140625	42.17301559448242	1371.14404296875	671.3807373046875	62.56514358520508	1416.546264648438	648.0699462890625	88.16728973388672	1370.656494140625	780.936279296875	485.3495178222656	1441.619384765625	811.2474975585938	1131.019653320313	1394.35009765625	799.0355834960938	538.130615234375	1432.891479492188	803.2616577148438	525.965576171875	1311.873413085938	863.863525390625	60.49264144897461	1332.905883789063	870.6416015625	71.15378570556641	1379.318237304688	834.9683837890625	50.49068832397461	1444.121948242188	711.5509643554688	1107.509765625	1284.934814453125	725.8073120117188	179.1346435546875	1429.131713867188	678.907470703125	186.1609039306641	1400.16064453125	725.4482421875	258.5172729492188	1447.128784179688	679.8385009765625	264.5514831542969	1418.03076171875	803.2659301757813	647.38623046875	1440.685791015625	738.2594604492188	647.8033447265625	1409.13232421875	802.703125	757.9617309570313	1442.1162109375	740.3089599609375	757.7713012695313	1412.882934570313	841.84423828125	458.4451293945313	1392.207275390625	
79	0.52	708.411376953125	107.0896987915039	1038.160400390625	736.0098876953125	119.3801727294922	1122.158569335938	884.6488037109375	1063.035766601563	1114	815.2166748046875	965.7950439453125	1051.240478515625	640.1197509765625	41.53948593139648	1080.987182617188	675.931640625	63.03177642822266	1035.844482421875	649.5958862304688	89.03372192382813	1082.275024414063	788.8775024414063	489.011474609375	1025.76904296875	802.7755737304688	1138.652954101563	1070.840209960938	807.0487060546875	545.4303588867188	1035.429931640625	793.484619140625	528.6166381835938	1157.277587890625	864.950927734375	57.85775756835938	1122.349609375	868.8995971679688	68.22242736816406	1077.883178710938	828.8128051757813	50.18576431274414	1012.232849121094	710.1055908203125	1107.388549804688	1184.327514648438	731.623291015625	186.7284698486328	1029.129516601563	686.574951171875	195.5966033935547	1051.697387695313	742.5684204101563	264.8815002441406	1011.061645507813	695.3480834960938	277.7826843261719	1033.064331054688	791.650146484375	666.3435668945313	1028.327026367188	730.020751953125	665.7758178710938	1067.453247070313	785.296630859375	776.3134155273438	1022.681884765625	729.3648071289063	774.8551635742188	1064.660400390625	843.9525756835938	457.8517761230469	1071.296020507813	710.2498779296875	104.1650695800781	1418.496337890625	735.536865234375	122.1310653686523	1332.39013671875	881.35888671875	1067.7724609375	1353.023193359375	809.0490112304688	961.8001098632813	1414.873413085938	639.40966796875	42.17206192016602	1371.15185546875	671.365966796875	62.55260467529297	1416.5400390625	648.0682373046875	88.15310668945313	1370.661743164063	780.9244384765625	485.3398132324219	1441.626342773438	811.2095947265625	1131.010986328125	1394.35888671875	799.0338134765625	538.1217041015625	1432.902709960938	803.229248046875	525.9699096679688	1311.86865234375	863.8568725585938	60.49449157714844	1332.908325195313	870.6326904296875	71.15818786621094	1379.327392578125	834.9650268554688	50.4923095703125	1444.109985351563	711.497802734375	1107.495971679688	1284.930053710938	725.802001953125	179.1293029785156	1429.134033203125	678.8948974609375	186.1644134521484	1400.16455078125	725.43798828125	258.517578125	1447.141845703125	679.832275390625	264.5456237792969	1418.031616210938	803.2672729492188	647.3792114257813	1440.688232421875	738.2509155273438	647.79248046875	1409.150146484375	802.6805419921875	757.96630859375	1442.121215820313	740.2783203125	757.7560424804688	1412.876342773438	841.835205078125	458.4425048828125	1392.208618164063	
